<?xml version="1.0" encoding="UTF-8" standalone="no"?>
<!-- Created with Inkscape (http://www.inkscape.org/) -->

<svg
   xmlns:dc="http://purl.org/dc/elements/1.1/"
   xmlns:cc="http://creativecommons.org/ns#"
   xmlns:rdf="http://www.w3.org/1999/02/22-rdf-syntax-ns#"
   xmlns:svg="http://www.w3.org/2000/svg"
   xmlns="http://www.w3.org/2000/svg"
   xmlns:sodipodi="http://sodipodi.sourceforge.net/DTD/sodipodi-0.dtd"
   xmlns:inkscape="http://www.inkscape.org/namespaces/inkscape"
   width="225"
   height="75"
   viewBox="0 0 59.531249 19.843751"
   version="1.1"
   id="svg8"
   inkscape:version="0.92.4 (5da689c313, 2019-01-14)"
   sodipodi:docname="home-drawing.svg">
  <defs
     id="defs2" />
  <sodipodi:namedview
     id="base"
     pagecolor="#ffffff"
     bordercolor="#666666"
     borderopacity="1.0"
     inkscape:pageopacity="0.0"
     inkscape:pageshadow="2"
     inkscape:zoom="2.8"
     inkscape:cx="172.75675"
     inkscape:cy="103.4202"
     inkscape:document-units="mm"
     inkscape:current-layer="layer1"
     showgrid="false"
     units="px"
     fit-margin-top="0"
     fit-margin-left="0"
     fit-margin-right="0"
     fit-margin-bottom="0"
     inkscape:window-width="1920"
     inkscape:window-height="1044"
     inkscape:window-x="1920"
     inkscape:window-y="0"
     inkscape:window-maximized="1" />
  <metadata
     id="metadata5">
    <rdf:RDF>
      <cc:Work
         rdf:about="">
        <dc:format>image/svg+xml</dc:format>
        <dc:type
           rdf:resource="http://purl.org/dc/dcmitype/StillImage" />
        <dc:title></dc:title>
      </cc:Work>
    </rdf:RDF>
  </metadata>
  <g
     inkscape:label="Calque 1"
     inkscape:groupmode="layer"
     id="layer1"
     transform="translate(0,-277.15623)">
    <path
       id="path157"
       d="m 9.3530215,281.78645 -3.11547,7.9375 h 1.276615 l 0.635,-1.69995 h 3.5388025 l 0.641615,1.69995 h 1.276615 l -3.11547,-7.9375 m -0.5688555,1.51473 1.3427625,3.58512 H 8.5724985 m -3.9422901,4.16055 v -1.98438 h -1.322917 v 3.3073 H 16.536459 v -1.32292 z"
       inkscape:connector-curvature="0"
       style="stroke-width:0.66145825" />
    <path
       id="path1087"
       d="M 35.177558,283.47016 H 24.353693 a 1.2026516,1.2026516 0 0 0 -1.202652,1.20266 v 4.81059 a 1.2026516,1.2026516 0 0 0 1.202652,1.20266 h 10.823865 a 1.2026516,1.2026516 0 0 0 1.20265,-1.20266 v -4.81059 a 1.2026516,1.2026516 0 0 0 -1.20265,-1.20266 m -6.01326,4.20927 h -1.803977 v 1.80398 h -1.20265 v -1.80398 h -1.803978 v -1.20263 h 1.803978 v -1.80398 h 1.20265 v 1.80398 h 1.803977 m 2.705966,2.40529 a 0.90198869,0.90198869 0 0 1 -0.901988,-0.90197 0.90198869,0.90198869 0 0 1 0.901988,-0.902 0.90198869,0.90198869 0 0 1 0.901989,0.902 0.90198869,0.90198869 0 0 1 -0.901989,0.90197 m 2.405305,-1.80397 a 0.90198869,0.90198869 0 0 1 -0.901989,-0.90198 0.90198869,0.90198869 0 0 1 0.901989,-0.902 0.90198869,0.90198869 0 0 1 0.901989,0.902 0.90198869,0.90198869 0 0 1 -0.901989,0.90198 z"
       inkscape:connector-curvature="0"
       style="stroke-width:0.60132575" />
    <path
       id="path1162"
       d="m 50.132529,288.92434 -1.527368,-1.50934 0.01795,-0.0182 c 1.046302,-1.16657 1.791946,-2.50752 2.230914,-3.92664 h 1.761884 v -1.20265 H 48.40672 v -1.20266 h -1.202648 v 1.20266 h -4.20928 v 1.20265 h 6.716807 c -0.402886,1.15455 -1.040293,2.25496 -1.906202,3.2171 -0.559232,-0.61937 -1.022253,-1.29887 -1.389062,-2.01446 h -1.202652 c 0.438968,0.98016 1.040293,1.90621 1.79195,2.74205 l -3.060748,3.01866 0.853884,0.85388 3.006628,-3.00662 1.870123,1.87013 0.457009,-1.2267 m 3.385464,-3.04873 H 52.31534 l -2.705966,7.21591 h 1.202653 l 0.673484,-1.80398 h 2.856298 l 0.679497,1.80398 h 1.202653 l -2.705966,-7.21591 m -1.575473,4.20927 0.974148,-2.60372 0.974147,2.60372 z"
       inkscape:connector-curvature="0"
       style="stroke-width:0.60132575" />
  </g>
</svg>
