<?xml version="1.0" encoding="UTF-8" standalone="no"?><!-- Generator: Gravit.io --><svg xmlns="http://www.w3.org/2000/svg" xmlns:xlink="http://www.w3.org/1999/xlink" style="isolation:isolate" viewBox="0 0 225 150" width="225pt" height="150pt"><defs><clipPath id="_clipPath_9M7UWjOCYEsS0L2z90Qio1FDhvL6cWiQ"><rect width="225" height="150"/></clipPath></defs><g clip-path="url(#_clipPath_9M7UWjOCYEsS0L2z90Qio1FDhvL6cWiQ)"><path d=" M 75 75 L 5 75 C 2.24 75 0 77.24 0 80 L 0 145 C 0 147.76 2.24 150 5 150 L 75 150 L 150 150 L 220 150 C 222.76 150 225 147.76 225 145 L 225 80 C 225 77.24 222.76 75 220 75 L 150 75 L 150 5 C 150 2.24 147.76 0 145 0 L 80 0 C 77.24 0 75 2.24 75 5 L 75 75 Z " fill-rule="evenodd" fill="rgb(0,40,88)"/><path d=" M 139.091 94.773 L 85.909 94.773 C 82.646 94.773 80 97.418 80 100.682 L 80 124.318 C 80 127.582 82.646 130.227 85.909 130.227 L 139.091 130.227 C 142.354 130.227 145 127.582 145 124.318 L 145 100.682 C 145 97.418 142.354 94.773 139.091 94.773 Z  M 109.545 115.455 L 100.682 115.455 L 100.682 124.318 L 94.773 124.318 L 94.773 115.455 L 85.909 115.455 L 85.909 109.545 L 94.773 109.545 L 94.773 100.682 L 100.682 100.682 L 100.682 109.545 L 109.545 109.545 M 122.841 121.364 C 120.393 121.364 118.409 119.379 118.409 116.932 C 118.409 114.484 120.393 112.5 122.841 112.5 C 125.289 112.5 127.273 114.484 127.273 116.932 C 127.273 119.379 125.289 121.364 122.841 121.364 Z  M 134.659 112.5 C 132.211 112.5 130.227 110.516 130.227 108.068 C 130.227 105.621 132.211 103.636 134.659 103.636 C 137.107 103.636 139.091 105.621 139.091 108.068 C 139.091 110.516 137.107 112.5 134.659 112.5 Z " fill="rgb(255,255,255)"/></g></svg>